<svg width="28" height="39" viewBox="0 0 28 39" fill="none" xmlns="http://www.w3.org/2000/svg">
<path d="M14.1667 2H8.33333C6.78624 2 5.30251 2.61458 4.20854 3.70854C3.11458 4.80251 2.5 6.28624 2.5 7.83333C2.5 9.38043 3.11458 10.8642 4.20854 11.9581C5.30251 13.0521 6.78624 13.6667 8.33333 13.6667M14.1667 2V13.6667M14.1667 2H20C20.766 2 21.5246 2.15088 22.2323 2.44404C22.9401 2.73719 23.5831 3.16687 24.1248 3.70854C24.6665 4.25022 25.0961 4.89328 25.3893 5.60101C25.6824 6.30875 25.8333 7.06729 25.8333 7.83333C25.8333 8.59938 25.6824 9.35792 25.3893 10.0657C25.0961 10.7734 24.6665 11.4164 24.1248 11.9581C23.5831 12.4998 22.9401 12.9295 22.2323 13.2226C21.5246 13.5158 20.766 13.6667 20 13.6667M14.1667 13.6667H8.33333M14.1667 13.6667H20M14.1667 13.6667V25.3333M8.33333 13.6667C6.78624 13.6667 5.30251 14.2812 4.20854 15.3752C3.11458 16.4692 2.5 17.9529 2.5 19.5C2.5 21.0471 3.11458 22.5308 4.20854 23.6248C5.30251 24.7188 6.78624 25.3333 8.33333 25.3333M20 13.6667C19.234 13.6667 18.4754 13.8175 17.7677 14.1107C17.0599 14.4039 16.4169 14.8335 15.8752 15.3752C15.3335 15.9169 14.9039 16.5599 14.6107 17.2677C14.3175 17.9754 14.1667 18.734 14.1667 19.5C14.1667 20.266 14.3175 21.0246 14.6107 21.7323C14.9039 22.4401 15.3335 23.0831 15.8752 23.6248C16.4169 24.1665 17.0599 24.5961 17.7677 24.8893C18.4754 25.1824 19.234 25.3333 20 25.3333C20.766 25.3333 21.5246 25.1824 22.2323 24.8893C22.9401 24.5961 23.5831 24.1665 24.1248 23.6248C24.6665 23.0831 25.0961 22.4401 25.3893 21.7323C25.6824 21.0246 25.8333 20.266 25.8333 19.5C25.8333 18.734 25.6824 17.9754 25.3893 17.2677C25.0961 16.5599 24.6665 15.9169 24.1248 15.3752C23.5831 14.8335 22.9401 14.4039 22.2323 14.1107C21.5246 13.8175 20.766 13.6667 20 13.6667ZM8.33333 25.3333C6.78624 25.3333 5.30251 25.9479 4.20854 27.0419C3.11458 28.1358 2.5 29.6196 2.5 31.1667C2.5 32.7138 3.11458 34.1975 4.20854 35.2915C5.30251 36.3854 6.78624 37 8.33333 37C9.88043 37 11.3642 36.3854 12.4581 35.2915C13.5521 34.1975 14.1667 32.7138 14.1667 31.1667V25.3333M8.33333 25.3333H14.1667" stroke="#1E1E1E" stroke-width="3.5" stroke-linecap="round" stroke-linejoin="round"/>
</svg>
