<svg width="35" height="40" viewBox="0 0 35 40" fill="none" xmlns="http://www.w3.org/2000/svg">
<path fill-rule="evenodd" clip-rule="evenodd" d="M30.2605 11.6666C30.2605 12.357 29.7707 12.9166 29.1667 12.9166H5.83337C5.22932 12.9166 4.73962 12.357 4.73962 11.6666C4.73962 10.9763 5.22932 10.4166 5.83337 10.4166H29.1667C29.7707 10.4166 30.2605 10.9763 30.2605 11.6666Z" fill="#1C274C"/>
<path fill-rule="evenodd" clip-rule="evenodd" d="M30.2605 20C30.2605 20.6903 29.7707 21.25 29.1667 21.25H5.83337C5.22932 21.25 4.73962 20.6903 4.73962 20C4.73962 19.3097 5.22932 18.75 5.83337 18.75H29.1667C29.7707 18.75 30.2605 19.3097 30.2605 20Z" fill="#1C274C"/>
<path fill-rule="evenodd" clip-rule="evenodd" d="M30.2605 28.3334C30.2605 29.0237 29.7707 29.5834 29.1667 29.5834H5.83337C5.22932 29.5834 4.73962 29.0237 4.73962 28.3334C4.73962 27.643 5.22932 27.0834 5.83337 27.0834H29.1667C29.7707 27.0834 30.2605 27.643 30.2605 28.3334Z" fill="#1C274C"/>
</svg>
