<svg width="25" height="24" viewBox="0 0 25 24" fill="none" xmlns="http://www.w3.org/2000/svg">
<g clip-path="url(#clip0_114_67)">
<path d="M12.48 2.163C15.684 2.163 16.064 2.175 17.33 2.233C20.582 2.381 22.101 3.924 22.249 7.152C22.307 8.417 22.318 8.797 22.318 12.001C22.318 15.206 22.306 15.585 22.249 16.85C22.1 20.075 20.585 21.621 17.33 21.769C16.064 21.827 15.686 21.839 12.48 21.839C9.27604 21.839 8.89604 21.827 7.63104 21.769C4.37104 21.62 2.86004 20.07 2.71204 16.849C2.65404 15.584 2.64204 15.205 2.64204 12C2.64204 8.796 2.65504 8.417 2.71204 7.151C2.86104 3.924 4.37604 2.38 7.63104 2.232C8.89704 2.175 9.27604 2.163 12.48 2.163ZM12.48 0C9.22104 0 8.81304 0.014 7.53304 0.072C3.17504 0.272 0.753042 2.69 0.553042 7.052C0.494042 8.333 0.480042 8.741 0.480042 12C0.480042 15.259 0.494042 15.668 0.552042 16.948C0.752042 21.306 3.17004 23.728 7.53204 23.928C8.81304 23.986 9.22104 24 12.48 24C15.739 24 16.148 23.986 17.428 23.928C21.782 23.728 24.21 21.31 24.407 16.948C24.466 15.668 24.48 15.259 24.48 12C24.48 8.741 24.466 8.333 24.408 7.053C24.212 2.699 21.791 0.273 17.429 0.073C16.148 0.014 15.739 0 12.48 0ZM12.48 5.838C9.07704 5.838 6.31804 8.597 6.31804 12C6.31804 15.403 9.07704 18.163 12.48 18.163C15.883 18.163 18.642 15.404 18.642 12C18.642 8.597 15.883 5.838 12.48 5.838ZM12.48 16C10.271 16 8.48004 14.21 8.48004 12C8.48004 9.791 10.271 8 12.48 8C14.689 8 16.48 9.791 16.48 12C16.48 14.21 14.689 16 12.48 16ZM18.886 4.155C18.09 4.155 17.445 4.8 17.445 5.595C17.445 6.39 18.09 7.035 18.886 7.035C19.681 7.035 20.325 6.39 20.325 5.595C20.325 4.8 19.681 4.155 18.886 4.155Z" fill="#1E1E1E"/>
</g>
<defs>
<clipPath id="clip0_114_67">
<rect width="24" height="24" fill="white" transform="translate(0.480042)"/>
</clipPath>
</defs>
</svg>
