<svg width="25" height="24" viewBox="0 0 25 24" fill="none" xmlns="http://www.w3.org/2000/svg">
<g clip-path="url(#clip0_114_71)">
<path d="M19.48 0H5.48004C2.71904 0 0.480042 2.239 0.480042 5V19C0.480042 21.761 2.71904 24 5.48004 24H19.48C22.242 24 24.48 21.761 24.48 19V5C24.48 2.239 22.242 0 19.48 0ZM8.48004 19H5.48004V8H8.48004V19ZM6.98004 6.732C6.01404 6.732 5.23004 5.942 5.23004 4.968C5.23004 3.994 6.01404 3.204 6.98004 3.204C7.94604 3.204 8.73004 3.994 8.73004 4.968C8.73004 5.942 7.94704 6.732 6.98004 6.732ZM20.48 19H17.48V13.396C17.48 10.028 13.48 10.283 13.48 13.396V19H10.48V8H13.48V9.765C14.876 7.179 20.48 6.988 20.48 12.241V19Z" fill="#1E1E1E"/>
</g>
<defs>
<clipPath id="clip0_114_71">
<rect width="24" height="24" fill="white" transform="translate(0.480042)"/>
</clipPath>
</defs>
</svg>
